<?xml version="1.0" encoding="UTF-8"?>
<svg xmlns="http://www.w3.org/2000/svg" xmlns:xlink="http://www.w3.org/1999/xlink" width="400px" height="116px" viewBox="0 0 399 116" version="1.1">
<g id="surface1">
<path style=" stroke:none;fill-rule:nonzero;fill:rgb(87.843138%,69.411767%,34.117648%);fill-opacity:1;" d="M 123.746094 13.292969 C 124.671875 13.953125 124.671875 13.953125 125.617188 14.625 C 142.945312 27.289062 154.074219 45.886719 157.546875 67.0625 C 159.347656 83.277344 158.152344 99.6875 158.152344 116 C 105.960938 116 53.769531 116 0 116 C 0 46.835938 0 46.835938 23.542969 22.355469 C 23.890625 21.964844 24.242188 21.578125 24.601562 21.175781 C 49.015625 -5.160156 95.351562 -6.984375 123.746094 13.292969 Z M 25.957031 24.769531 C 25.503906 25.183594 25.054688 25.597656 24.589844 26.023438 C 10.394531 39.464844 3.804688 58.785156 3.019531 77.9375 C 4.730469 78.507812 6.265625 78.703125 8.054688 78.871094 C 21.09375 80.117188 32.484375 84.761719 44.066406 90.625 C 44.066406 90.238281 44.070312 89.851562 44.070312 89.457031 C 44.097656 85.386719 44.140625 81.320312 44.191406 77.25 C 44.207031 75.738281 44.21875 74.226562 44.230469 72.714844 C 44.339844 53.863281 48.117188 38.574219 61.558594 24.683594 C 66.453125 19.886719 72.417969 16.402344 78.472656 13.292969 C 78.472656 9.902344 78.472656 6.511719 78.472656 3.019531 C 58.835938 2.070312 39.839844 11.46875 25.957031 24.769531 Z M 79.679688 3.019531 C 79.679688 6.410156 79.679688 9.800781 79.679688 13.292969 C 81.109375 14.050781 82.542969 14.8125 84.019531 15.59375 C 97.679688 23.128906 106.878906 35.265625 111.757812 50.039062 C 113.179688 55.304688 113.675781 60.273438 113.734375 65.726562 C 113.746094 66.441406 113.757812 67.15625 113.769531 67.894531 C 113.804688 70.160156 113.832031 72.425781 113.859375 74.691406 C 113.882812 76.234375 113.90625 77.777344 113.929688 79.324219 C 113.988281 83.089844 114.039062 86.859375 114.085938 90.625 C 115.035156 90.140625 115.035156 90.140625 116 89.648438 C 124.886719 85.136719 124.886719 85.136719 129.367188 83.527344 C 130.070312 83.269531 130.070312 83.269531 130.789062 83.007812 C 137.636719 80.613281 144.847656 79.050781 152.097656 78.648438 C 153.445312 78.578125 153.445312 78.578125 155.132812 77.9375 C 153.613281 55.09375 145.199219 35.96875 127.96875 20.542969 C 114.609375 9.25 97.136719 2.777344 79.679688 3.019531 Z M 79.679688 15.105469 C 79.679688 15.703125 79.679688 16.300781 79.679688 16.917969 C 80.292969 17.226562 80.292969 17.226562 80.917969 17.539062 C 85.144531 19.742188 88.734375 22.296875 92.355469 25.375 C 93.25 26.085938 93.25 26.085938 94.160156 26.816406 C 103.222656 34.699219 108.765625 47.472656 110.464844 59.207031 C 110.53125 60.378906 110.570312 61.550781 110.589844 62.726562 C 110.605469 63.742188 110.605469 63.742188 110.625 64.777344 C 110.636719 65.5 110.644531 66.21875 110.65625 66.964844 C 110.667969 67.710938 110.679688 68.453125 110.695312 69.222656 C 110.734375 71.597656 110.769531 73.976562 110.804688 76.351562 C 110.828125 77.964844 110.855469 79.578125 110.882812 81.191406 C 110.949219 85.140625 111.007812 89.089844 111.066406 93.042969 C 111.664062 92.644531 112.261719 92.246094 112.878906 91.832031 C 113.15625 90.59375 113.15625 90.59375 113.113281 89.140625 C 113.117188 88.582031 113.125 88.023438 113.128906 87.445312 C 113.125 86.53125 113.125 86.53125 113.121094 85.601562 C 113.121094 84.652344 113.121094 84.652344 113.125 83.6875 C 113.125 82.34375 113.121094 81 113.113281 79.65625 C 113.105469 77.636719 113.113281 75.617188 113.125 73.597656 C 113.144531 57.011719 110.011719 42.527344 98.996094 29.605469 C 98.644531 29.15625 98.292969 28.710938 97.933594 28.25 C 93.214844 22.488281 86.667969 17.679688 79.679688 15.105469 Z M 77.867188 15.105469 C 73.476562 17.347656 69.566406 19.777344 65.796875 22.957031 C 65.320312 23.339844 64.839844 23.722656 64.351562 24.117188 C 53.101562 33.566406 47.171875 47.269531 45.273438 61.625 C 45.113281 64.050781 45.089844 66.46875 45.089844 68.898438 C 45.089844 69.554688 45.085938 70.214844 45.082031 70.890625 C 45.078125 72.265625 45.078125 73.636719 45.082031 75.011719 C 45.082031 77.121094 45.070312 79.234375 45.054688 81.34375 C 45.054688 82.683594 45.050781 84.023438 45.054688 85.363281 C 45.046875 85.992188 45.042969 86.625 45.035156 87.277344 C 45.039062 87.859375 45.042969 88.4375 45.046875 89.039062 C 45.046875 89.550781 45.046875 90.0625 45.046875 90.589844 C 45.121094 91 45.195312 91.410156 45.273438 91.832031 C 45.871094 92.230469 46.46875 92.628906 47.082031 93.042969 C 47.085938 92.640625 47.085938 92.238281 47.089844 91.828125 C 47.117188 87.601562 47.15625 83.375 47.207031 79.152344 C 47.226562 77.578125 47.238281 76.007812 47.246094 74.4375 C 47.351562 55.957031 50.757812 40.277344 63.984375 26.582031 C 68.273438 22.503906 73.308594 19.71875 78.472656 16.917969 C 78.171875 16.019531 78.171875 16.019531 77.867188 15.105469 Z M 67.152344 25.527344 C 66.394531 26.109375 66.394531 26.109375 65.617188 26.707031 C 62.734375 31.445312 66.195312 40.773438 67.210938 46.046875 C 67.410156 47.101562 67.613281 48.15625 67.8125 49.210938 C 68.230469 51.410156 68.652344 53.605469 69.074219 55.800781 C 69.613281 58.617188 70.152344 61.433594 70.6875 64.246094 C 71.199219 66.941406 71.714844 69.632812 72.226562 72.328125 C 72.324219 72.839844 72.421875 73.351562 72.523438 73.878906 C 72.800781 75.328125 73.078125 76.773438 73.355469 78.21875 C 73.4375 78.648438 73.519531 79.074219 73.605469 79.515625 C 73.96875 81.421875 74.351562 83.3125 74.851562 85.1875 C 76.046875 85.1875 77.242188 85.1875 78.472656 85.1875 C 78.472656 63.257812 78.472656 41.324219 78.472656 18.730469 C 74.6875 18.730469 70.019531 23.277344 67.152344 25.527344 Z M 79.679688 18.730469 C 79.679688 40.660156 79.679688 62.589844 79.679688 85.1875 C 80.875 85.1875 82.070312 85.1875 83.300781 85.1875 C 85.386719 74.398438 87.46875 63.609375 89.542969 52.816406 C 89.792969 51.523438 90.042969 50.226562 90.292969 48.929688 C 90.84375 46.058594 91.394531 43.1875 91.941406 40.316406 C 92.160156 39.148438 92.386719 37.980469 92.613281 36.808594 C 92.742188 36.125 92.871094 35.4375 93.003906 34.730469 C 93.167969 33.867188 93.167969 33.867188 93.335938 32.988281 C 93.5625 31.414062 93.679688 29.984375 93.5625 28.394531 C 90.269531 24.347656 85.449219 21.195312 80.886719 18.730469 C 80.488281 18.730469 80.089844 18.730469 79.679688 18.730469 Z M 62.175781 30.8125 C 56.964844 36.332031 52.589844 43.355469 50.703125 50.75 C 50.972656 53.492188 51.761719 55.578125 53.003906 58.027344 C 53.351562 58.71875 53.703125 59.414062 54.0625 60.128906 C 54.4375 60.867188 54.816406 61.605469 55.195312 62.34375 C 55.578125 63.101562 55.964844 63.859375 56.347656 64.621094 C 60.164062 72.152344 63.988281 79.6875 68.210938 87 C 70.898438 86.402344 70.898438 86.402344 73.644531 85.792969 C 70.257812 67.648438 66.871094 49.503906 63.382812 30.8125 C 62.984375 30.8125 62.585938 30.8125 62.175781 30.8125 Z M 94.769531 30.8125 C 91.382812 48.957031 87.996094 67.097656 84.507812 85.792969 C 86.300781 86.191406 88.09375 86.589844 89.941406 87 C 93.816406 79.6875 97.625 72.34375 101.410156 64.984375 C 101.640625 64.539062 101.871094 64.09375 102.105469 63.632812 C 102.765625 62.347656 103.429688 61.0625 104.089844 59.777344 C 104.289062 59.390625 104.488281 59.003906 104.691406 58.605469 C 105.207031 57.597656 105.722656 56.589844 106.238281 55.582031 C 106.484375 55.136719 106.730469 54.695312 106.984375 54.234375 C 107.914062 52.089844 107.175781 49.875 106.421875 47.75 C 105.894531 46.476562 105.324219 45.234375 104.730469 43.992188 C 104.519531 43.546875 104.308594 43.101562 104.089844 42.640625 C 102.078125 38.554688 99.695312 34.761719 96.582031 31.417969 C 95.984375 31.21875 95.386719 31.019531 94.769531 30.8125 Z M 49.496094 54.980469 C 46.683594 69.433594 46.683594 69.433594 48.988281 83.5625 C 50.949219 85.902344 53.371094 87.023438 56.136719 88.207031 C 57.117188 88.820312 58.085938 89.449219 59.042969 90.097656 C 59.996094 90.65625 59.996094 90.65625 60.964844 91.230469 C 62.757812 90.230469 64.550781 89.234375 66.398438 88.207031 C 65.914062 85.789062 65.554688 84.5 64.449219 82.425781 C 64.167969 81.890625 63.886719 81.359375 63.59375 80.808594 C 63.132812 79.949219 63.132812 79.949219 62.664062 79.070312 C 62.011719 77.835938 61.359375 76.597656 60.703125 75.363281 C 60.359375 74.707031 60.011719 74.054688 59.652344 73.378906 C 57.898438 70.054688 56.171875 66.714844 54.445312 63.371094 C 53.53125 61.601562 52.613281 59.828125 51.695312 58.058594 C 51.164062 57.03125 50.632812 56.003906 50.101562 54.980469 C 49.902344 54.980469 49.703125 54.980469 49.496094 54.980469 Z M 108.050781 54.980469 C 107.707031 55.652344 107.363281 56.324219 107.007812 57.015625 C 105.714844 59.550781 104.417969 62.082031 103.125 64.613281 C 102.566406 65.703125 102.011719 66.792969 101.453125 67.882812 C 100.648438 69.460938 99.839844 71.042969 99.03125 72.621094 C 98.769531 73.132812 98.507812 73.644531 98.234375 74.175781 C 97.0625 76.460938 95.878906 78.742188 94.640625 80.996094 C 94.441406 81.363281 94.242188 81.726562 94.035156 82.101562 C 93.511719 83.046875 92.984375 83.988281 92.453125 84.933594 C 91.621094 86.398438 91.621094 86.398438 91.75 88.207031 C 93.742188 89.207031 95.734375 90.203125 97.789062 91.230469 C 99.6875 89.832031 101.585938 88.433594 103.484375 87.039062 C 104.296875 86.441406 104.296875 86.441406 105.128906 85.832031 C 105.644531 85.449219 106.160156 85.070312 106.6875 84.679688 C 107.167969 84.328125 107.644531 83.976562 108.136719 83.617188 C 109.207031 82.851562 109.207031 82.851562 109.859375 82.167969 C 109.996094 79.640625 109.972656 77.113281 109.972656 74.582031 C 109.972656 73.324219 109.984375 72.066406 109.996094 70.808594 C 110.019531 65.417969 109.574219 60.300781 108.652344 54.980469 C 108.453125 54.980469 108.253906 54.980469 108.050781 54.980469 Z M 3.019531 79.75 C 3.019531 90.714844 3.019531 101.679688 3.019531 112.980469 C 17.957031 112.980469 32.898438 112.980469 48.289062 112.980469 C 49.285156 109.789062 50.28125 106.597656 51.308594 103.3125 C 51.90625 101.519531 51.90625 101.519531 52.515625 99.6875 C 39.574219 87.113281 21.019531 79.75 3.019531 79.75 Z M 106.332031 98.953125 C 106.101562 99.195312 105.871094 99.4375 105.636719 99.6875 C 105.796875 100.171875 105.960938 100.660156 106.125 101.160156 C 106.363281 101.871094 106.597656 102.582031 106.84375 103.3125 C 106.988281 103.742188 107.132812 104.171875 107.285156 104.617188 C 107.4375 105.070312 107.589844 105.523438 107.75 105.992188 C 107.890625 106.417969 108.035156 106.839844 108.183594 107.273438 C 108.785156 109.164062 109.316406 111.074219 109.859375 112.980469 C 124.800781 112.980469 139.742188 112.980469 155.132812 112.980469 C 155.132812 102.011719 155.132812 91.046875 155.132812 79.75 C 137.636719 79.75 118.992188 86.6875 106.332031 98.953125 Z M 48.289062 84.582031 C 47.570312 90.40625 47.570312 90.40625 49.300781 95.71875 C 50.570312 96.6875 51.601562 97.390625 53.121094 97.875 C 55.203125 97.179688 55.765625 96.472656 57.15625 94.816406 C 57.53125 94.375 57.90625 93.929688 58.296875 93.472656 C 58.578125 93.132812 58.863281 92.789062 59.15625 92.4375 C 57.21875 90.351562 55.046875 88.746094 52.703125 87.152344 C 52.167969 86.777344 52.167969 86.777344 51.617188 86.398438 C 50.085938 85.136719 50.085938 85.136719 48.289062 84.582031 Z M 105.105469 87.492188 C 104.722656 87.765625 104.335938 88.035156 103.941406 88.316406 C 103.566406 88.585938 103.195312 88.851562 102.8125 89.125 C 102.46875 89.371094 102.128906 89.613281 101.777344 89.863281 C 100.617188 90.742188 100.617188 90.742188 98.996094 92.4375 C 100.589844 94.230469 102.183594 96.027344 103.824219 97.875 C 107.21875 96.554688 107.21875 96.554688 109.859375 94.25 C 110.085938 92.457031 110.152344 91.035156 110.050781 89.265625 C 110.035156 88.816406 110.023438 88.367188 110.007812 87.902344 C 109.972656 86.796875 109.917969 85.6875 109.859375 84.582031 C 108.304688 84.582031 106.394531 86.566406 105.105469 87.492188 Z M 105.105469 87.492188 "/>
<path style=" stroke:none;fill-rule:nonzero;fill:rgb(87.843138%,69.803923%,34.117648%);fill-opacity:1;" d="M 284.308594 43.5 C 285.105469 43.5 285.902344 43.5 286.726562 43.5 C 287.09375 44.398438 287.09375 44.398438 287.46875 45.316406 C 289.976562 51.453125 292.492188 57.589844 295.011719 63.722656 C 295.914062 65.914062 296.8125 68.109375 297.710938 70.304688 C 298.75 72.847656 299.796875 75.390625 300.84375 77.929688 C 301.242188 78.890625 301.632812 79.851562 302.027344 80.8125 C 302.574219 82.152344 303.125 83.488281 303.679688 84.824219 C 303.839844 85.222656 304 85.621094 304.167969 86.03125 C 304.941406 88.117188 304.941406 88.117188 306.644531 89.417969 C 309.054688 89.507812 310.929688 89.402344 313.285156 88.8125 C 313.285156 74.65625 313.285156 60.5 313.285156 45.917969 C 311.890625 45.519531 310.496094 45.121094 309.058594 44.707031 C 309.058594 44.308594 309.058594 43.910156 309.058594 43.5 C 312.289062 43.453125 315.519531 43.421875 318.753906 43.402344 C 319.847656 43.390625 320.945312 43.378906 322.042969 43.363281 C 337.5 43.144531 337.5 43.144531 342.863281 47.730469 C 345.273438 50.535156 346.035156 53.152344 345.878906 56.792969 C 345.234375 60.054688 344.128906 62.964844 341.65625 65.25 C 339.132812 66.710938 336.574219 67.953125 333.808594 68.875 C 334.21875 69.148438 334.628906 69.421875 335.054688 69.707031 C 338.964844 73.203125 341.515625 78.015625 344.296875 82.429688 C 344.695312 83.0625 344.695312 83.0625 345.101562 83.710938 C 345.351562 84.109375 345.601562 84.507812 345.855469 84.921875 C 346.078125 85.277344 346.300781 85.636719 346.53125 86.003906 C 347.085938 87 347.085938 87 347.691406 88.8125 C 349.867188 89.539062 351.441406 89.613281 353.726562 89.417969 C 356.582031 87.65625 357.617188 85.507812 358.746094 82.464844 C 358.921875 82.011719 359.097656 81.5625 359.277344 81.097656 C 359.851562 79.621094 360.410156 78.136719 360.972656 76.652344 C 361.367188 75.628906 361.761719 74.605469 362.15625 73.578125 C 363.179688 70.933594 364.1875 68.28125 365.195312 65.628906 C 366.171875 63.066406 367.15625 60.511719 368.136719 57.953125 C 369.984375 53.140625 371.820312 48.320312 373.648438 43.5 C 375.035156 43.539062 375.035156 43.539062 376.664062 44.105469 C 377.492188 45.53125 378.058594 46.757812 378.621094 48.289062 C 378.796875 48.726562 378.96875 49.160156 379.144531 49.613281 C 379.515625 50.5625 379.882812 51.511719 380.246094 52.464844 C 380.820312 53.96875 381.40625 55.46875 381.996094 56.964844 C 382.609375 58.527344 383.222656 60.085938 383.832031 61.648438 C 385.867188 66.863281 387.988281 72.042969 390.136719 77.210938 C 390.730469 78.640625 391.320312 80.070312 391.910156 81.5 C 392.269531 82.375 392.632812 83.246094 392.996094 84.117188 C 393.15625 84.515625 393.320312 84.914062 393.488281 85.328125 C 394.175781 86.96875 394.710938 88.144531 395.980469 89.417969 C 397.535156 89.808594 397.535156 89.808594 399 90.019531 C 399 90.417969 399 90.816406 399 91.230469 C 393.222656 91.230469 387.445312 91.230469 381.496094 91.230469 C 381.496094 90.832031 381.496094 90.433594 381.496094 90.019531 C 382.890625 89.421875 384.285156 88.824219 385.71875 88.207031 C 385.457031 87.445312 385.457031 87.445312 385.191406 86.664062 C 384.96875 86.003906 384.742188 85.339844 384.511719 84.660156 C 384.289062 84 384.066406 83.339844 383.832031 82.664062 C 383.304688 80.957031 383.304688 80.957031 383.304688 79.75 C 376.132812 79.75 368.964844 79.75 361.574219 79.75 C 359.621094 85.222656 359.621094 85.222656 359.765625 88.8125 C 360.761719 89.210938 361.757812 89.609375 362.78125 90.019531 C 362.78125 90.417969 362.78125 90.816406 362.78125 91.230469 C 360.171875 91.273438 357.5625 91.308594 354.953125 91.328125 C 354.066406 91.335938 353.179688 91.351562 352.292969 91.367188 C 351.015625 91.386719 349.734375 91.398438 348.457031 91.40625 C 347.304688 91.421875 347.304688 91.421875 346.128906 91.433594 C 342.574219 91.078125 340.703125 89.304688 338.472656 86.601562 C 337.15625 84.816406 335.972656 82.949219 334.789062 81.070312 C 330.925781 74.945312 326.894531 68.5625 319.925781 65.855469 C 319.980469 68.734375 320.046875 71.617188 320.117188 74.496094 C 320.140625 75.476562 320.160156 76.457031 320.179688 77.4375 C 320.207031 78.847656 320.242188 80.257812 320.277344 81.667969 C 320.285156 82.101562 320.292969 82.539062 320.300781 82.988281 C 320.382812 86.097656 320.382812 86.097656 321.734375 88.8125 C 323.570312 89.59375 323.570312 89.59375 325.355469 90.019531 C 325.355469 90.417969 325.355469 90.816406 325.355469 91.230469 C 314.402344 91.230469 303.445312 91.230469 292.15625 91.230469 C 292.15625 90.832031 292.15625 90.433594 292.15625 90.019531 C 293.949219 89.421875 293.949219 89.421875 295.777344 88.8125 C 295.441406 85.484375 294.746094 83.582031 293.363281 80.355469 C 286.394531 80.355469 279.421875 80.355469 272.238281 80.355469 C 269.71875 86.105469 269.71875 86.105469 269.824219 88.8125 C 271.019531 89.210938 272.214844 89.609375 273.445312 90.019531 C 273.445312 90.417969 273.445312 90.816406 273.445312 91.230469 C 269.859375 91.230469 266.273438 91.230469 262.578125 91.230469 C 262.578125 90.832031 262.578125 90.433594 262.578125 90.019531 C 263.402344 89.722656 263.402344 89.722656 264.238281 89.417969 C 268.039062 87.078125 269.203125 82.054688 270.753906 78.015625 C 270.945312 77.511719 271.140625 77.011719 271.34375 76.492188 C 271.757812 75.421875 272.167969 74.351562 272.582031 73.285156 C 273.652344 70.503906 274.730469 67.730469 275.808594 64.953125 C 276.019531 64.40625 276.230469 63.859375 276.449219 63.296875 C 279.015625 56.675781 281.652344 50.085938 284.308594 43.5 Z M 319.925781 45.3125 C 319.925781 51.292969 319.925781 57.273438 319.925781 63.4375 C 326.1875 67.050781 326.1875 67.050781 333.203125 67.0625 C 336.082031 65.484375 337.652344 63.542969 338.636719 60.417969 C 339.164062 55.980469 339.023438 51.941406 336.222656 48.332031 C 332.8125 45.359375 329.75 44.90625 325.355469 45.125 C 323.5625 45.1875 321.769531 45.25 319.925781 45.3125 Z M 372.441406 52.5625 C 371.449219 54.933594 370.464844 57.308594 369.476562 59.683594 C 369.144531 60.488281 368.808594 61.292969 368.472656 62.097656 C 364.636719 69.820312 364.636719 69.820312 362.78125 77.9375 C 369.15625 77.9375 375.53125 77.9375 382.097656 77.9375 C 381.699219 75.933594 381.355469 74.371094 380.652344 72.523438 C 380.480469 72.074219 380.3125 71.628906 380.136719 71.167969 C 379.957031 70.691406 379.773438 70.21875 379.585938 69.730469 C 379.308594 68.992188 379.308594 68.992188 379.019531 68.242188 C 378.425781 66.675781 377.828125 65.113281 377.230469 63.550781 C 376.828125 62.488281 376.421875 61.425781 376.019531 60.359375 C 375.03125 57.761719 374.039062 55.160156 373.042969 52.5625 C 372.84375 52.5625 372.644531 52.5625 372.441406 52.5625 Z M 282.5 53.167969 C 281.121094 56.597656 279.746094 60.027344 278.371094 63.457031 C 277.90625 64.625 277.4375 65.792969 276.96875 66.960938 C 276.296875 68.636719 275.625 70.3125 274.953125 71.988281 C 274.742188 72.511719 274.53125 73.039062 274.3125 73.582031 C 274.121094 74.0625 273.925781 74.546875 273.726562 75.046875 C 273.554688 75.472656 273.382812 75.902344 273.207031 76.34375 C 272.804688 77.25 272.804688 77.25 272.839844 77.9375 C 279.414062 77.9375 285.988281 77.9375 292.761719 77.9375 C 291.621094 74.507812 290.464844 71.117188 289.1875 67.738281 C 289.03125 67.320312 288.871094 66.898438 288.710938 66.460938 C 288.210938 65.140625 287.714844 63.816406 287.214844 62.492188 C 286.875 61.585938 286.535156 60.679688 286.191406 59.773438 C 285.363281 57.570312 284.535156 55.367188 283.707031 53.167969 C 283.308594 53.167969 282.910156 53.167969 282.5 53.167969 Z M 282.5 53.167969 "/>
<path style=" stroke:none;fill-rule:nonzero;fill:rgb(88.235295%,69.803923%,34.117648%);fill-opacity:1;" d="M 210.0625 43.5 C 220.421875 43.5 230.78125 43.5 241.453125 43.5 C 241.453125 43.898438 241.453125 44.296875 241.453125 44.707031 C 240.257812 45.105469 239.0625 45.503906 237.832031 45.917969 C 238.175781 48.3125 238.683594 50.449219 239.546875 52.707031 C 239.773438 53.308594 240 53.910156 240.234375 54.527344 C 240.480469 55.164062 240.726562 55.804688 240.980469 56.460938 C 241.234375 57.125 241.484375 57.785156 241.746094 58.46875 C 242.550781 60.578125 243.359375 62.6875 244.167969 64.796875 C 244.714844 66.226562 245.257812 67.652344 245.800781 69.082031 C 246.796875 71.6875 247.792969 74.292969 248.792969 76.898438 C 248.992188 77.421875 249.191406 77.945312 249.398438 78.480469 C 249.882812 79.753906 249.882812 79.753906 250.507812 80.957031 C 253.25 75.234375 255.542969 69.335938 257.847656 63.425781 C 258.507812 61.730469 259.175781 60.035156 259.84375 58.339844 C 260.269531 57.253906 260.695312 56.167969 261.117188 55.082031 C 261.414062 54.328125 261.414062 54.328125 261.71875 53.558594 C 262.707031 51.011719 263.464844 48.648438 263.785156 45.917969 C 262.589844 45.519531 261.394531 45.121094 260.164062 44.707031 C 260.164062 44.308594 260.164062 43.910156 260.164062 43.5 C 263.75 43.5 267.335938 43.5 271.03125 43.5 C 271.03125 43.898438 271.03125 44.296875 271.03125 44.707031 C 270.226562 44.96875 270.226562 44.96875 269.40625 45.238281 C 264.378906 48.464844 262.6875 56.800781 260.636719 62.230469 C 259.644531 64.851562 258.644531 67.46875 257.648438 70.089844 C 257.449219 70.605469 257.253906 71.121094 257.050781 71.65625 C 254.546875 78.210938 251.9375 84.726562 249.300781 91.230469 C 248.503906 91.230469 247.707031 91.230469 246.886719 91.230469 C 246.65625 90.664062 246.429688 90.101562 246.199219 89.523438 C 241.976562 79.050781 237.738281 68.582031 233.410156 58.152344 C 233.011719 57.195312 232.617188 56.242188 232.222656 55.285156 C 231.667969 53.945312 231.113281 52.609375 230.554688 51.273438 C 230.394531 50.878906 230.230469 50.484375 230.0625 50.074219 C 229.339844 48.351562 228.609375 46.875 227.570312 45.3125 C 226.417969 45.070312 226.417969 45.070312 225.15625 45.160156 C 224.519531 45.175781 224.519531 45.175781 223.871094 45.191406 C 222.6875 45.25 222.6875 45.25 221.53125 45.917969 C 220.867188 47.917969 220.851562 49.402344 220.851562 51.511719 C 220.847656 52.292969 220.847656 53.070312 220.84375 53.875 C 220.847656 54.726562 220.847656 55.582031 220.847656 56.433594 C 220.847656 57.304688 220.847656 58.179688 220.847656 59.054688 C 220.847656 60.882812 220.847656 62.714844 220.851562 64.542969 C 220.855469 66.890625 220.851562 69.238281 220.847656 71.585938 C 220.847656 73.386719 220.847656 75.191406 220.847656 76.996094 C 220.847656 77.859375 220.847656 78.726562 220.847656 79.589844 C 220.84375 80.800781 220.847656 82.007812 220.851562 83.21875 C 220.851562 83.90625 220.851562 84.59375 220.851562 85.304688 C 220.855469 87.050781 220.855469 87.050781 221.53125 88.8125 C 223.042969 89.546875 223.042969 89.546875 224.550781 90.019531 C 224.550781 90.417969 224.550781 90.816406 224.550781 91.230469 C 219.769531 91.230469 214.988281 91.230469 210.0625 91.230469 C 210.0625 90.832031 210.0625 90.433594 210.0625 90.019531 C 211.558594 89.722656 211.558594 89.722656 213.082031 89.417969 C 213.621094 87.105469 213.761719 84.964844 213.761719 82.597656 C 213.765625 81.84375 213.765625 81.089844 213.769531 80.3125 C 213.769531 79.496094 213.765625 78.675781 213.765625 77.859375 C 213.765625 77.015625 213.765625 76.171875 213.765625 75.328125 C 213.769531 73.566406 213.765625 71.800781 213.765625 70.039062 C 213.761719 67.78125 213.761719 65.523438 213.765625 63.261719 C 213.769531 61.523438 213.769531 59.785156 213.765625 58.042969 C 213.765625 57.210938 213.765625 56.378906 213.769531 55.546875 C 213.769531 54.382812 213.765625 53.21875 213.761719 52.054688 C 213.761719 51.390625 213.761719 50.730469 213.761719 50.046875 C 213.695312 48.542969 213.621094 47.320312 213.082031 45.917969 C 211.578125 45.132812 211.578125 45.132812 210.0625 44.707031 C 210.0625 44.308594 210.0625 43.910156 210.0625 43.5 Z M 210.0625 43.5 "/>
<path style=" stroke:none;fill-rule:nonzero;fill:rgb(87.843138%,69.803923%,34.117648%);fill-opacity:1;" d="M 167.808594 43.5 C 171.679688 42.675781 175.484375 42.085938 179.277344 43.5 C 182.804688 46.457031 184.910156 50.84375 187.15625 54.789062 C 189.007812 57.9375 191.082031 60.921875 193.160156 63.921875 C 194.242188 65.492188 195.304688 67.070312 196.375 68.644531 C 198.082031 71.167969 199.839844 73.648438 201.613281 76.125 C 201.644531 72.027344 201.664062 67.929688 201.679688 63.835938 C 201.683594 62.441406 201.691406 61.046875 201.703125 59.652344 C 201.71875 57.648438 201.726562 55.648438 201.730469 53.644531 C 201.738281 53.019531 201.742188 52.394531 201.75 51.75 C 201.75 51.171875 201.75 50.589844 201.75 49.992188 C 201.753906 49.226562 201.753906 49.226562 201.757812 48.445312 C 201.695312 46.949219 201.695312 46.949219 200.40625 45.3125 C 199.808594 45.113281 199.210938 44.914062 198.59375 44.707031 C 198.59375 44.308594 198.59375 43.910156 198.59375 43.5 C 201.78125 43.5 204.96875 43.5 208.253906 43.5 C 208.253906 43.898438 208.253906 44.296875 208.253906 44.707031 C 207.878906 44.808594 207.503906 44.90625 207.121094 45.011719 C 205.488281 46.164062 205.300781 47.226562 204.871094 49.128906 C 204.335938 52.75 204.410156 56.425781 204.382812 60.078125 C 204.371094 60.976562 204.359375 61.878906 204.34375 62.777344 C 204.316406 65.132812 204.289062 67.492188 204.269531 69.847656 C 204.242188 72.257812 204.214844 74.667969 204.183594 77.074219 C 204.125 81.792969 204.074219 86.511719 204.027344 91.230469 C 203.429688 91.230469 202.832031 91.230469 202.214844 91.230469 C 201.101562 89.886719 201.101562 89.886719 199.847656 87.996094 C 199.621094 87.65625 199.394531 87.316406 199.160156 86.96875 C 198.414062 85.847656 197.671875 84.726562 196.933594 83.601562 C 196.417969 82.824219 195.898438 82.050781 195.382812 81.273438 C 194.332031 79.703125 193.285156 78.128906 192.242188 76.554688 C 190.175781 73.445312 188.066406 70.367188 185.957031 67.289062 C 182.066406 61.609375 178.265625 55.875 174.449219 50.144531 C 174.449219 63.105469 174.449219 76.066406 174.449219 89.417969 C 175.445312 89.617188 176.441406 89.816406 177.46875 90.019531 C 177.46875 90.417969 177.46875 90.816406 177.46875 91.230469 C 174.28125 91.230469 171.09375 91.230469 167.808594 91.230469 C 167.808594 90.832031 167.808594 90.433594 167.808594 90.019531 C 169.304688 89.722656 169.304688 89.722656 170.828125 89.417969 C 171.296875 86.929688 171.507812 84.582031 171.507812 82.054688 C 171.511719 80.964844 171.511719 80.964844 171.515625 79.855469 C 171.515625 79.078125 171.511719 78.304688 171.511719 77.503906 C 171.511719 76.691406 171.511719 75.878906 171.511719 75.066406 C 171.515625 73.367188 171.511719 71.667969 171.511719 69.972656 C 171.507812 67.800781 171.507812 65.632812 171.511719 63.464844 C 171.515625 61.785156 171.511719 60.109375 171.511719 58.433594 C 171.511719 57.246094 171.511719 56.0625 171.515625 54.875 C 171.511719 54.148438 171.511719 53.421875 171.507812 52.675781 C 171.507812 52.039062 171.507812 51.402344 171.507812 50.75 C 171.429688 48.894531 171.171875 47.136719 170.828125 45.3125 C 169.832031 45.113281 168.835938 44.914062 167.808594 44.707031 C 167.808594 44.308594 167.808594 43.910156 167.808594 43.5 Z M 167.808594 43.5 "/>
<path style=" stroke:none;fill-rule:nonzero;fill:rgb(86.274511%,68.627453%,33.333334%);fill-opacity:1;" d="M 329.207031 97.6875 C 331.242188 98.851562 332.378906 99.835938 333.203125 102.105469 C 333.558594 104.542969 333.738281 105.996094 332.519531 108.144531 C 330.644531 110.507812 328.996094 111.816406 325.960938 112.375 C 322.65625 112.675781 320.414062 112.179688 317.511719 110.5625 C 315.878906 109.070312 314.699219 107.949219 314.242188 105.734375 C 314.125 103.023438 314.507812 101.105469 316.300781 99.082031 C 320.34375 96.1875 324.65625 95.640625 329.207031 97.6875 Z M 320 99.046875 C 318.332031 101.449219 317.929688 103.425781 318.113281 106.332031 C 319.023438 108.542969 320.183594 110.089844 322.339844 111.167969 C 324.613281 111.125 326.066406 110.878906 327.996094 109.65625 C 329.441406 107.433594 329.707031 105.339844 329.582031 102.707031 C 328.683594 100.230469 328.160156 99.34375 325.960938 97.875 C 323.386719 97.542969 322.171875 97.578125 320 99.046875 Z M 320 99.046875 "/>
<path style=" stroke:none;fill-rule:nonzero;fill:rgb(87.843138%,69.411767%,34.117648%);fill-opacity:1;" d="M 344.070312 96.667969 C 353.195312 96.4375 353.195312 96.4375 357.347656 97.875 C 358.558594 99.082031 358.558594 99.082031 358.746094 101.160156 C 358.558594 103.3125 358.558594 103.3125 357.800781 104.40625 C 356.6875 105.164062 355.539062 105.742188 354.332031 106.332031 C 354.980469 106.929688 355.636719 107.519531 356.292969 108.109375 C 356.65625 108.4375 357.019531 108.765625 357.398438 109.105469 C 358.609375 109.996094 359.503906 110.304688 360.972656 110.5625 C 360.972656 110.960938 360.972656 111.359375 360.972656 111.769531 C 359.460938 112.332031 358.710938 112.421875 357.15625 111.9375 C 355.332031 111.066406 353.957031 110.007812 352.40625 108.710938 C 350.460938 107.054688 350.460938 107.054688 348.296875 105.730469 C 348.363281 106.625 348.441406 107.515625 348.519531 108.410156 C 348.5625 108.90625 348.605469 109.40625 348.648438 109.917969 C 348.730469 110.332031 348.8125 110.742188 348.898438 111.167969 C 349.296875 111.367188 349.695312 111.566406 350.105469 111.769531 C 348.113281 111.769531 346.121094 111.769531 344.070312 111.769531 C 344.269531 111.371094 344.46875 110.972656 344.671875 110.5625 C 344.730469 109.664062 344.753906 108.765625 344.753906 107.863281 C 344.753906 107.332031 344.753906 106.796875 344.753906 106.25 C 344.753906 105.691406 344.75 105.132812 344.75 104.558594 C 344.75 104.003906 344.753906 103.445312 344.753906 102.875 C 344.753906 102.339844 344.753906 101.808594 344.753906 101.257812 C 344.753906 100.769531 344.753906 100.277344 344.75 99.773438 C 344.722656 98.367188 344.722656 98.367188 344.070312 96.667969 Z M 348.296875 97.875 C 348.296875 100.066406 348.296875 102.261719 348.296875 104.519531 C 351.53125 105.207031 351.53125 105.207031 354.632812 104.484375 C 355.683594 103.3125 355.683594 103.3125 355.839844 101.5 C 355.691406 99.6875 355.691406 99.6875 354.632812 98.554688 C 352.445312 97.570312 350.683594 97.753906 348.296875 97.875 Z M 348.296875 97.875 "/>
<path style=" stroke:none;fill-rule:nonzero;fill:rgb(87.450981%,69.411767%,34.117648%);fill-opacity:1;" d="M 271.03125 96.667969 C 280.15625 96.4375 280.15625 96.4375 284.308594 97.875 C 285.515625 99.082031 285.515625 99.082031 285.707031 101.160156 C 285.515625 103.3125 285.515625 103.3125 284.761719 104.40625 C 283.648438 105.164062 282.5 105.742188 281.292969 106.332031 C 281.941406 106.929688 282.597656 107.519531 283.253906 108.109375 C 283.617188 108.4375 283.980469 108.765625 284.355469 109.105469 C 285.570312 109.996094 286.464844 110.304688 287.933594 110.5625 C 287.933594 110.960938 287.933594 111.359375 287.933594 111.769531 C 286.421875 112.332031 285.671875 112.421875 284.117188 111.9375 C 282.292969 111.066406 280.917969 110.007812 279.367188 108.710938 C 277.421875 107.054688 277.421875 107.054688 275.253906 105.730469 C 275.324219 106.625 275.402344 107.515625 275.480469 108.410156 C 275.523438 108.90625 275.566406 109.40625 275.609375 109.917969 C 275.691406 110.332031 275.773438 110.742188 275.859375 111.167969 C 276.257812 111.367188 276.65625 111.566406 277.066406 111.769531 C 275.074219 111.769531 273.082031 111.769531 271.03125 111.769531 C 271.230469 111.371094 271.429688 110.972656 271.632812 110.5625 C 271.691406 109.664062 271.710938 108.765625 271.714844 107.863281 C 271.714844 107.332031 271.714844 106.796875 271.714844 106.25 C 271.714844 105.691406 271.710938 105.132812 271.710938 104.558594 C 271.710938 104.003906 271.714844 103.445312 271.714844 102.875 C 271.714844 102.339844 271.714844 101.808594 271.714844 101.257812 C 271.714844 100.769531 271.710938 100.277344 271.710938 99.773438 C 271.683594 98.367188 271.683594 98.367188 271.03125 96.667969 Z M 275.253906 97.875 C 275.253906 100.066406 275.253906 102.261719 275.253906 104.519531 C 278.492188 105.207031 278.492188 105.207031 281.59375 104.484375 C 282.644531 103.3125 282.644531 103.3125 282.800781 101.5 C 282.652344 99.6875 282.652344 99.6875 281.59375 98.554688 C 279.40625 97.570312 277.644531 97.753906 275.253906 97.875 Z M 275.253906 97.875 "/>
<path style=" stroke:none;fill-rule:nonzero;fill:rgb(86.666667%,69.01961%,33.725491%);fill-opacity:1;" d="M 199.800781 96.667969 C 201.4375 96.488281 201.4375 96.488281 203.421875 96.667969 C 204.878906 97.882812 204.878906 97.882812 206.214844 99.5 C 206.878906 100.289062 206.878906 100.289062 207.558594 101.089844 C 210.195312 104.378906 210.195312 104.378906 211.269531 105.730469 C 211.269531 103.335938 211.269531 100.945312 211.269531 98.480469 C 210.871094 98.28125 210.472656 98.082031 210.0625 97.875 C 210.0625 97.476562 210.0625 97.078125 210.0625 96.667969 C 211.457031 96.667969 212.851562 96.667969 214.289062 96.667969 C 214.089844 97.265625 213.890625 97.863281 213.683594 98.480469 C 213.597656 99.503906 213.535156 100.535156 213.496094 101.5625 C 213.46875 102.15625 213.445312 102.75 213.417969 103.363281 C 213.394531 103.980469 213.371094 104.601562 213.347656 105.238281 C 213.320312 105.863281 213.292969 106.488281 213.265625 107.132812 C 213.203125 108.679688 213.140625 110.226562 213.082031 111.769531 C 210.824219 111.441406 209.988281 110.621094 208.582031 108.859375 C 208.210938 108.398438 207.835938 107.9375 207.449219 107.460938 C 207.066406 106.976562 206.683594 106.492188 206.289062 105.992188 C 205.898438 105.507812 205.507812 105.019531 205.101562 104.515625 C 204.136719 103.3125 203.175781 102.105469 202.214844 100.894531 C 202.214844 104.285156 202.214844 107.675781 202.214844 111.167969 C 202.613281 111.367188 203.011719 111.566406 203.421875 111.769531 C 202.027344 111.769531 200.636719 111.769531 199.199219 111.769531 C 199.398438 111.371094 199.597656 110.972656 199.800781 110.5625 C 199.851562 109.511719 199.867188 108.457031 199.859375 107.40625 C 199.859375 106.78125 199.855469 106.160156 199.855469 105.515625 C 199.851562 104.863281 199.84375 104.210938 199.839844 103.539062 C 199.835938 102.882812 199.835938 102.222656 199.832031 101.546875 C 199.824219 99.921875 199.8125 98.292969 199.800781 96.667969 Z M 199.800781 96.667969 "/>
<path style=" stroke:none;fill-rule:nonzero;fill:rgb(87.843138%,69.803923%,34.117648%);fill-opacity:1;" d="M 248.695312 96.667969 C 252.480469 96.667969 256.265625 96.667969 260.164062 96.667969 C 260.164062 97.664062 260.164062 98.660156 260.164062 99.6875 C 259.742188 99.5 259.316406 99.3125 258.882812 99.121094 C 257.09375 98.460938 255.410156 98.136719 253.523438 97.875 C 253.523438 99.070312 253.523438 100.265625 253.523438 101.5 C 254.71875 101.5 255.914062 101.5 257.148438 101.5 C 257.148438 101.898438 257.148438 102.296875 257.148438 102.707031 C 255.953125 102.707031 254.757812 102.707031 253.523438 102.707031 C 253.523438 105.5 253.523438 108.289062 253.523438 111.167969 C 257.03125 110.402344 257.03125 110.402344 260.164062 108.75 C 260.164062 109.746094 260.164062 110.742188 260.164062 111.769531 C 256.378906 111.769531 252.59375 111.769531 248.695312 111.769531 C 248.894531 111.371094 249.09375 110.972656 249.300781 110.5625 C 249.390625 109.601562 249.449219 108.636719 249.492188 107.667969 C 249.515625 107.101562 249.542969 106.53125 249.566406 105.945312 C 249.589844 105.351562 249.613281 104.757812 249.640625 104.144531 C 249.664062 103.542969 249.691406 102.945312 249.71875 102.324219 C 249.78125 100.84375 249.84375 99.359375 249.902344 97.875 C 249.503906 97.875 249.105469 97.875 248.695312 97.875 C 248.695312 97.476562 248.695312 97.078125 248.695312 96.667969 Z M 248.695312 96.667969 "/>
<path style=" stroke:none;fill-rule:nonzero;fill:rgb(87.843138%,69.411767%,33.725491%);fill-opacity:1;" d="M 379.082031 96.667969 C 380.890625 97.800781 380.890625 97.800781 382.097656 99.082031 C 382.097656 99.480469 382.097656 99.878906 382.097656 100.292969 C 380.507812 99.996094 379.554688 99.601562 378.175781 98.707031 C 376.746094 97.722656 376.746094 97.722656 375.269531 98.0625 C 374.933594 98.199219 374.597656 98.339844 374.25 98.480469 C 374.25 99.277344 374.25 100.074219 374.25 100.894531 C 374.746094 101.085938 375.242188 101.277344 375.75 101.472656 C 376.402344 101.730469 377.050781 101.988281 377.722656 102.253906 C 378.367188 102.507812 379.011719 102.761719 379.675781 103.019531 C 381.519531 103.929688 382.628906 104.734375 383.910156 106.332031 C 383.984375 108.144531 383.984375 108.144531 383.304688 109.957031 C 381.386719 111.738281 379.816406 112.527344 377.230469 112.640625 C 374.839844 112.375 373.636719 112.144531 371.835938 110.5625 C 371.347656 108.9375 371.347656 108.9375 371.234375 107.542969 C 371.832031 107.542969 372.429688 107.542969 373.042969 107.542969 C 373.21875 107.929688 373.390625 108.3125 373.570312 108.710938 C 374.148438 110.050781 374.148438 110.050781 375.457031 110.5625 C 377.960938 110.710938 377.960938 110.710938 380.289062 109.957031 C 380.214844 108.476562 380.214844 108.476562 379.683594 106.9375 C 378.378906 106.15625 378.378906 106.15625 376.777344 105.730469 C 374.160156 104.792969 372.558594 104.085938 371.234375 101.5 C 371.234375 99.605469 371.546875 98.8125 372.78125 97.382812 C 374.875 96.363281 376.824219 96.25 379.082031 96.667969 Z M 379.082031 96.667969 "/>
<path style=" stroke:none;fill-rule:nonzero;fill:rgb(87.843138%,69.411767%,33.725491%);fill-opacity:1;" d="M 224.550781 96.667969 C 229.132812 96.667969 233.714844 96.667969 238.433594 96.667969 C 238.433594 97.863281 238.433594 99.058594 238.433594 100.292969 C 238.097656 100.117188 237.761719 99.941406 237.414062 99.761719 C 235.96875 99.058594 234.5 98.464844 233 97.875 C 233.066406 99.964844 233.148438 102.054688 233.226562 104.144531 C 233.246094 104.738281 233.265625 105.332031 233.285156 105.945312 C 233.308594 106.515625 233.332031 107.082031 233.355469 107.667969 C 233.375 108.195312 233.394531 108.71875 233.414062 109.261719 C 233.492188 110.6875 233.492188 110.6875 234.8125 111.769531 C 232.621094 111.769531 230.429688 111.769531 228.171875 111.769531 C 228.570312 111.371094 228.96875 110.972656 229.378906 110.5625 C 229.601562 109.21875 229.601562 109.21875 229.628906 107.667969 C 229.652344 107.101562 229.675781 106.53125 229.699219 105.945312 C 229.71875 105.351562 229.738281 104.757812 229.757812 104.144531 C 229.792969 103.242188 229.792969 103.242188 229.828125 102.324219 C 229.882812 100.84375 229.9375 99.359375 229.984375 97.875 C 229.421875 98.160156 228.863281 98.449219 228.285156 98.742188 C 226.363281 99.6875 226.363281 99.6875 224.550781 100.292969 C 224.550781 99.09375 224.550781 97.898438 224.550781 96.667969 Z M 224.550781 96.667969 "/>
<path style=" stroke:none;fill-rule:nonzero;fill:rgb(88.235295%,70.19608%,34.509805%);fill-opacity:1;" d="M 182.898438 96.667969 C 184.890625 96.667969 186.882812 96.667969 188.9375 96.667969 C 188.9375 97.066406 188.9375 97.464844 188.9375 97.875 C 188.539062 97.875 188.140625 97.875 187.730469 97.875 C 187.730469 102.261719 187.730469 106.648438 187.730469 111.167969 C 188.128906 111.367188 188.527344 111.566406 188.9375 111.769531 C 186.945312 111.769531 184.953125 111.769531 182.898438 111.769531 C 183.097656 111.371094 183.296875 110.972656 183.503906 110.5625 C 183.5625 109.664062 183.582031 108.765625 183.582031 107.863281 C 183.585938 107.332031 183.585938 106.796875 183.585938 106.25 C 183.582031 105.691406 183.582031 105.132812 183.578125 104.558594 C 183.582031 104.003906 183.582031 103.445312 183.585938 102.875 C 183.585938 102.339844 183.585938 101.808594 183.582031 101.257812 C 183.582031 100.769531 183.582031 100.277344 183.582031 99.773438 C 183.554688 98.367188 183.554688 98.367188 182.898438 96.667969 Z M 182.898438 96.667969 "/>
<path style=" stroke:none;fill-rule:nonzero;fill:rgb(87.450981%,69.411767%,34.117648%);fill-opacity:1;" d="M 297.589844 96.667969 C 299.582031 96.667969 301.574219 96.667969 303.625 96.667969 C 303.425781 97.265625 303.226562 97.863281 303.023438 98.480469 C 302.96875 99.402344 302.945312 100.332031 302.941406 101.257812 C 302.941406 101.789062 302.941406 102.324219 302.941406 102.875 C 302.941406 103.429688 302.945312 103.984375 302.945312 104.558594 C 302.945312 105.117188 302.941406 105.675781 302.941406 106.25 C 302.941406 107.050781 302.941406 107.050781 302.941406 107.863281 C 302.941406 108.351562 302.945312 108.839844 302.945312 109.34375 C 302.945312 110.605469 302.945312 110.605469 303.625 111.769531 C 301.632812 111.769531 299.640625 111.769531 297.589844 111.769531 C 297.988281 111.570312 298.386719 111.371094 298.796875 111.167969 C 298.796875 106.980469 298.796875 102.792969 298.796875 98.480469 C 298.398438 98.28125 298 98.082031 297.589844 97.875 C 297.589844 97.476562 297.589844 97.078125 297.589844 96.667969 Z M 297.589844 96.667969 "/>
</g>
</svg>
